<?xml version="1.0" encoding="UTF-8"?>
<svg id="Layer_1" xmlns="http://www.w3.org/2000/svg" version="1.1" viewBox="0 0 252 144">
  <!-- Generator: Adobe Illustrator 29.4.0, SVG Export Plug-In . SVG Version: 2.1.0 Build 152)  -->
  <defs>
    <style>
      .st0, .st1, .st2, .st3, .st4 {
        stroke-miterlimit: 10;
      }

      .st0, .st1, .st4 {
        stroke: #2c296a;
      }

      .st0, .st2, .st3, .st4 {
        fill: none;
      }

      .st5 {
        letter-spacing: 0em;
      }

      .st5, .st6 {
        font-family: RoxboroughCF-DemiBold, 'Roxborough CF';
        font-weight: 300;
      }

      .st1, .st7 {
        fill: #0087c7;
      }

      .st6 {
        fill: #2c296a;
        font-size: 6.95px;
      }

      .st2 {
        stroke: #f9f9fd;
        stroke-width: .25px;
      }

      .st8 {
        opacity: .2;
      }

      .st9, .st10 {
        fill: #f7f7f9;
      }

      .st3 {
        stroke: #f9fafd;
        stroke-width: 2.5px;
      }

      .st10 {
        font-size: 18.61px;
      }

      .st11 {
        font-family: Helvetica-Bold, Helvetica;
        font-weight: 700;
      }

      .st4 {
        stroke-width: .5px;
      }
    </style>
  </defs>
  <rect class="st7" x="-.39" y=".17" width="252.39" height="144"/>
  <text class="st6" transform="translate(76.62 92.39)"><tspan x="0" y="0">Social Media, Measured Right. </tspan></text>
  <g>
    <polygon class="st1" points="119.02 52.37 112.79 62.4 117.86 62.4 118.6 67.47 126.32 54.69 132.96 67.47 134.44 61.87 139.93 63.14 131.87 49.57 119.02 52.37"/>
    <path class="st1" d="M132.77,54.12s6.02,1.48,5.91-5.17c0,0-.53-2.22,1.06-3.27,0,0,3.48-2.16.53-7.1,0,0-2.01-.51-2.01-3.88,0,0-.53-4.86-5.49-4.22,0,0-1.58.32-3.06-1.37,0,0-2.64-3.27-7.18-.42,0,0-1.37,2.43-3.17,1.69,0,0-4.96.42-4.96,4.86,0,0,.42,3.06-1.48,3.8,0,0-3.91,3.48,0,6.44,0,0,2.32,1.06,1.48,3.7,0,0-.21,5.56,4.44,5.1,0,0,3.06-.56,4.54,1.66,0,0,3.7,3.91,6.13,0,0,0,1.06-2.53,3.27-1.8Z"/>
    <circle class="st1" cx="126.63" cy="42.55" r="8.77" transform="translate(-5.18 20.83) rotate(-9.22)"/>
    <polyline class="st0" points="123.11 44.09 126.32 46.41 132.06 38.61"/>
    <g>
      <path class="st4" d="M123.72,39.74s2.6-1.18,4.96,0"/>
      <path class="st4" d="M123.18,38.49s3.29-1.49,6.28,0"/>
      <path class="st4" d="M124.26,40.96s2.06-.59,3.93,0"/>
    </g>
  </g>
  <text class="st10" transform="translate(75.51 84.27)"><tspan class="st11" x="0" y="0">cho</tspan><tspan class="st5" x="33.08" y="0">Score.ai</tspan></text>
  <path class="st3" d="M62.47,79.54s5.39-3.71,11.35-2.97"/>
  <path class="st3" d="M59.9,74.73s6.82-4.7,14.36-3.76"/>
  <path class="st3" d="M65.05,84.29s4.44-2.31,9-2.35"/>
  <path class="st7" d="M176.42,72.64s.59-.94.68-1.9c0,0,.5-.31,1.34.43l-2.03,1.47Z"/>
  <g class="st8">
    <circle class="st9" cx="71.57" cy="89.85" r="2.96"/>
    <path class="st7" d="M70.55,89.54s.2-1.56.97-2.69c0,0-.27-.79-1.85-.74l.89,3.43Z"/>
  </g>
  <g class="st8">
    <path class="st2" d="M177.78,69.56s1.02.43,1.46,1.35"/>
    <path class="st2" d="M178.23,68.75s1.29.54,1.85,1.71"/>
    <path class="st2" d="M177.34,70.36s.74.42,1.16,1.07"/>
  </g>
</svg>
